<svg width="90" height="165" viewBox="0 0 90 165" fill="none" xmlns="http://www.w3.org/2000/svg">
<g clip-path="url(#clip0_8074_5710)">
<path d="M45.0042 -0.00244065L36.3008 42.9481L53.7012 42.9481L45.0042 -0.00244065Z" fill="#5C9812"/>
<path d="M45.0042 -0.00244065L36.3008 42.9481L53.7012 42.9481L45.0042 -0.00244065Z" fill="#2B2B35"/>
<path d="M28.769 129.868C26.1224 135.359 30.2768 137.089 32.1091 139.755C33.2606 141.428 32.7771 144.705 31.4792 145.589C35.6146 146.34 38.4203 143.184 41.1815 141.473C44.3116 146.594 35.3283 156.106 38.4458 159.738C41.5696 163.371 46.7738 165 49.8021 165.006C45.8958 161.832 46.4875 158.803 48.7715 155.826C53.2631 149.973 66.8335 138.444 60.3759 129.308C53.9184 120.172 32.09 122.965 28.7626 129.875L28.769 129.868Z" fill="#FF9B00"/>
<path d="M28.769 129.868C26.1224 135.359 30.2768 137.089 32.1091 139.755C33.2606 141.428 32.7771 144.705 31.4792 145.589C35.6146 146.34 38.4203 143.184 41.1815 141.473C44.3116 146.594 35.3283 156.106 38.4458 159.738C41.5696 163.371 46.7738 165 49.8021 165.006C45.8958 161.832 46.4875 158.803 48.7715 155.826C53.2631 149.973 66.8335 138.444 60.3759 129.308C53.9184 120.172 32.09 122.965 28.7626 129.875L28.769 129.868Z" fill="url(#paint0_linear_8074_5710)"/>
<g style="mix-blend-mode:screen">
<path d="M39.5663 135.035C39.3691 136.581 39.1018 139.419 36.3089 139.941C36.8242 135.869 27.8473 131.517 32.3898 127.325C39.4454 120.81 53.6202 123.876 57.0239 127.439C68.1958 136.989 46.2847 147.321 45.5339 154.612C35.2337 151.482 53.1876 139.19 39.5663 135.042L39.5663 135.035Z" fill="#FFFF88"/>
<path d="M39.5663 135.035C39.3691 136.581 39.1018 139.419 36.3089 139.941C36.8242 135.869 27.8473 131.517 32.3898 127.325C39.4454 120.81 53.6202 123.876 57.0239 127.439C68.1958 136.989 46.2847 147.321 45.5339 154.612C35.2337 151.482 53.1876 139.19 39.5663 135.042L39.5663 135.035Z" fill="url(#paint1_linear_8074_5710)"/>
</g>
<path d="M22.609 75.0586L32.2285 93.8968C32.2285 93.8968 17.2585 99.7245 15.3626 102.562C14.1347 104.401 7.82984 121.343 7.82984 121.343C6.0739 120.707 0.246202 96.8997 0.850601 92.9806C1.23233 90.5249 22.6026 75.0586 22.6026 75.0586L22.609 75.0586Z" fill="#B4F15A"/>
<path d="M22.609 75.0586L32.2285 93.8968C32.2285 93.8968 17.2585 99.7245 15.3626 102.562C14.1347 104.401 7.82984 121.343 7.82984 121.343C6.0739 120.707 0.246202 96.8997 0.850601 92.9806C1.23233 90.5249 22.6026 75.0586 22.6026 75.0586L22.609 75.0586Z" fill="url(#paint2_linear_8074_5710)"/>
<path d="M29.7184 88.9658L32.2441 93.8965C32.2441 93.8965 17.2487 99.7114 15.3528 102.543C14.1249 104.381 7.82638 121.336 7.82638 121.336C7.74367 121.304 7.64824 121.215 7.54645 121.088C7.40012 113.269 8.14448 100.806 9.29603 98.299C10.0213 96.7085 22.3765 91.7651 29.712 88.9658L29.7184 88.9658Z" fill="#5C9812"/>
<path d="M29.7184 88.9658L32.2441 93.8965C32.2441 93.8965 17.2487 99.7114 15.3528 102.543C14.1249 104.381 7.82638 121.336 7.82638 121.336C7.74367 121.304 7.64824 121.215 7.54645 121.088C7.40012 113.269 8.14448 100.806 9.29603 98.299C10.0213 96.7085 22.3765 91.7651 29.712 88.9658L29.7184 88.9658Z" fill="#2B2B35"/>
<path d="M67.3932 75.0586L57.7737 93.8968C57.7737 93.8968 72.7437 99.7245 74.6396 102.562C75.8675 104.401 82.1723 121.343 82.1723 121.343C83.9283 120.707 89.756 96.8997 89.1516 92.9806C88.7698 90.5249 67.3995 75.0586 67.3995 75.0586L67.3932 75.0586Z" fill="#B4F15A"/>
<path d="M67.3932 75.0586L57.7737 93.8968C57.7737 93.8968 72.7437 99.7245 74.6396 102.562C75.8675 104.401 82.1723 121.343 82.1723 121.343C83.9283 120.707 89.756 96.8997 89.1516 92.9806C88.7698 90.5249 67.3995 75.0586 67.3995 75.0586L67.3932 75.0586Z" fill="url(#paint3_linear_8074_5710)"/>
<path d="M60.2922 88.9658L57.7664 93.8965C57.7664 93.8965 72.7619 99.7114 74.6578 102.543C75.8857 104.381 82.1842 121.336 82.1842 121.336C82.2669 121.304 82.3623 121.215 82.4641 121.088C82.6104 113.269 81.8661 100.806 80.7145 98.299C79.9893 96.7085 67.634 91.7651 60.2985 88.9658L60.2922 88.9658Z" fill="#5C9812"/>
<path d="M60.2922 88.9658L57.7664 93.8965C57.7664 93.8965 72.7619 99.7114 74.6578 102.543C75.8857 104.381 82.1842 121.336 82.1842 121.336C82.2669 121.304 82.3623 121.215 82.4641 121.088C82.6104 113.269 81.8661 100.806 80.7145 98.299C79.9893 96.7085 67.634 91.7651 60.2985 88.9658L60.2922 88.9658Z" fill="#2B2B35"/>
<path d="M45.004 11.8071L38.8009 45.4499L51.207 45.4499L45.004 11.8071Z" fill="#B4F15A"/>
<path d="M45.004 11.8071L38.8009 45.4499L51.207 45.4499L45.004 11.8071Z" fill="url(#paint4_linear_8074_5710)"/>
<path d="M57.8872 108.829L32.1207 108.829L24.8106 124.734C32.0443 134.773 57.4546 133.278 65.1973 124.734L57.8872 108.829Z" fill="#5C9812"/>
<path d="M57.8872 108.829L32.1207 108.829L24.8106 124.734C32.0443 134.773 57.4546 133.278 65.1973 124.734L57.8872 108.829Z" fill="#2B2B35"/>
<path d="M56.799 115.401C48.6937 120.23 40.722 120.306 33.202 115.401L28.3413 123.952C34.309 132.235 55.2721 131.001 61.666 123.952L56.8054 115.401L56.799 115.401Z" fill="#B4F15A"/>
<path d="M56.799 115.401C48.6937 120.23 40.722 120.306 33.202 115.401L28.3413 123.952C34.309 132.235 55.2721 131.001 61.666 123.952L56.8054 115.401L56.799 115.401Z" fill="url(#paint5_linear_8074_5710)"/>
<path d="M19.9879 71.9547C19.9879 96.0862 31.1852 115.65 45.0037 115.65C58.8222 115.65 70.0195 96.0862 70.0195 71.9547C70.0195 47.8232 58.8222 28.2598 45.0037 28.2598C31.1852 28.2598 19.9879 47.8232 19.9879 71.9547Z" fill="#D1E2F6"/>
<path d="M19.9879 71.9547C19.9879 96.0862 31.1852 115.65 45.0037 115.65C58.8222 115.65 70.0195 96.0862 70.0195 71.9547C70.0195 47.8232 58.8222 28.2598 45.0037 28.2598C31.1852 28.2598 19.9879 47.8232 19.9879 71.9547Z" fill="url(#paint6_linear_8074_5710)"/>
<g style="mix-blend-mode:screen" opacity="0.6">
<path d="M23.3092 68.6334C23.3092 89.8955 33.1641 107.137 45.3284 107.137C57.4928 107.137 67.3477 89.8955 67.3477 68.6333C67.3477 47.3712 57.4928 30.1299 45.3284 30.1299C33.1641 30.1299 23.3092 47.3712 23.3092 68.6334Z" fill="url(#paint7_linear_8074_5710)"/>
</g>
<path d="M29.9586 63.3318C29.9586 72.1879 37.0206 79.3643 45.7303 79.3643C54.44 79.3643 61.502 72.1879 61.502 63.3318C61.502 54.4758 54.44 47.2993 45.7303 47.2993C37.0206 47.2993 29.9586 54.4758 29.9586 63.3318Z" fill="#D1E2F6"/>
<path d="M29.9586 63.3318C29.9586 72.1879 37.0206 79.3643 45.7303 79.3643C54.44 79.3643 61.502 72.1879 61.502 63.3318C61.502 54.4758 54.44 47.2993 45.7303 47.2993C37.0206 47.2993 29.9586 54.4758 29.9586 63.3318Z" fill="url(#paint8_linear_8074_5710)"/>
<path d="M29.9586 63.3318C29.9586 72.1879 37.0206 79.3643 45.7303 79.3643C54.44 79.3643 61.502 72.1879 61.502 63.3318C61.502 54.4758 54.44 47.2993 45.7303 47.2993C37.0206 47.2993 29.9586 54.4758 29.9586 63.3318Z" fill="url(#paint9_linear_8074_5710)"/>
<g style="mix-blend-mode:soft-light">
<path d="M30.2451 60.77C30.2451 69.3207 37.1735 76.249 45.7241 76.249C54.2748 76.249 61.2031 69.3207 61.2031 60.77C61.2031 52.2193 54.2748 45.291 45.7241 45.291C37.1735 45.291 30.2451 52.2193 30.2451 60.77Z" fill="#222029"/>
</g>
<path d="M45.7247 45.1001C53.8364 45.1001 60.4848 51.3477 61.1465 59.2876L61.1465 59.3194C57.4119 64.6827 52.3731 68.8053 45.7566 68.9962C39.0891 69.187 34.0439 65.1216 30.303 59.6948C30.7738 51.564 37.4795 45.1065 45.7247 45.1065L45.7247 45.1001Z" fill="#B4F15A"/>
<path d="M45.7247 45.1001C53.8364 45.1001 60.4848 51.3477 61.1465 59.2876L61.1465 59.3194C57.4119 64.6827 52.3731 68.8053 45.7566 68.9962C39.0891 69.187 34.0439 65.1216 30.303 59.6948C30.7738 51.564 37.4795 45.1065 45.7247 45.1065L45.7247 45.1001Z" fill="url(#paint10_linear_8074_5710)"/>
<path d="M33.043 60.7695C33.043 67.7742 38.7244 73.4492 45.7227 73.4492C52.721 73.4492 58.4023 67.7742 58.4023 60.7695C58.4023 53.7648 52.721 48.0898 45.7227 48.0898C38.7243 48.0898 33.043 53.7712 33.043 60.7695Z" fill="#FFC56A"/>
<path d="M34.1231 59.6865C34.1231 65.9723 39.2192 71.0683 45.5049 71.0683C51.7907 71.0683 56.8867 65.9723 56.8867 59.6865C56.8867 53.4007 51.7907 48.3047 45.5049 48.3047C39.2191 48.3047 34.1231 53.4007 34.1231 59.6865Z" fill="#FFD491"/>
<path d="M45.5012 48.3062C50.171 48.3062 54.1918 51.1246 55.9414 55.1518C54.1855 59.179 50.171 61.9974 45.5012 61.9974C40.8314 61.9974 36.8424 59.179 35.0864 55.1518C36.8424 51.1246 40.8314 48.3062 45.5012 48.3062Z" fill="#FFEBCC"/>
<path d="M35.1698 56.6783C35.1698 58.3515 36.525 59.7066 38.1982 59.7066C39.8714 59.7066 41.2266 58.3515 41.2266 56.6783C41.2266 55.005 39.8714 53.6499 38.1982 53.6499C36.525 53.6499 35.1698 55.005 35.1698 56.6783Z" fill="#EBFCFF"/>
<path d="M49.0185 68.7979C49.0185 69.8731 49.8901 70.7447 50.9653 70.7447C52.0405 70.7447 52.9121 69.8731 52.9121 68.7979C52.9121 67.7227 52.0405 66.8511 50.9653 66.8511C49.8901 66.8511 49.0185 67.7227 49.0185 68.7979Z" fill="#FFEBCC"/>
<path d="M35.0158 97.4657C35.0158 103.478 39.8128 108.358 45.7296 108.358C51.6463 108.358 56.4434 103.484 56.4434 97.4657C56.4434 91.4471 51.6463 86.5737 45.7296 86.5737C39.8128 86.5737 35.0158 91.4471 35.0158 97.4657Z" fill="#D1E2F6"/>
<path d="M35.0158 97.4657C35.0158 103.478 39.8128 108.358 45.7296 108.358C51.6463 108.358 56.4434 103.484 56.4434 97.4657C56.4434 91.4471 51.6463 86.5737 45.7296 86.5737C39.8128 86.5737 35.0158 91.4471 35.0158 97.4657Z" fill="url(#paint11_linear_8074_5710)"/>
<path d="M35.0158 97.4657C35.0158 103.478 39.8128 108.358 45.7296 108.358C51.6463 108.358 56.4434 103.484 56.4434 97.4657C56.4434 91.4471 51.6463 86.5737 45.7296 86.5737C39.8128 86.5737 35.0158 91.4471 35.0158 97.4657Z" fill="url(#paint12_linear_8074_5710)"/>
<g style="mix-blend-mode:soft-light">
<path d="M35.211 95.7295C35.211 101.538 39.919 106.246 45.7276 106.246C51.5362 106.246 56.2441 101.538 56.2441 95.7295C56.2441 89.9208 51.5362 85.2129 45.7276 85.2129C39.919 85.2129 35.211 89.9209 35.211 95.7295Z" fill="#222029"/>
</g>
<path d="M45.7247 85.0845C51.2343 85.0845 55.7514 89.328 56.2031 94.7231L56.2031 94.7421C53.6646 98.3876 50.2482 101.187 45.7502 101.314C41.2204 101.441 37.7976 98.6803 35.2527 94.9966C35.5708 89.4743 40.1261 85.0845 45.7311 85.0845L45.7247 85.0845Z" fill="#B4F15A"/>
<path d="M45.7247 85.0845C51.2343 85.0845 55.7514 89.328 56.2031 94.7231L56.2031 94.7421C53.6646 98.3876 50.2482 101.187 45.7502 101.314C41.2204 101.441 37.7976 98.6803 35.2527 94.9966C35.5708 89.4743 40.1261 85.0845 45.7311 85.0845L45.7247 85.0845Z" fill="url(#paint13_linear_8074_5710)"/>
<path d="M37.1152 95.7276C37.1152 100.486 40.9706 104.342 45.7295 104.342C50.4883 104.342 54.3438 100.486 54.3438 95.7276C54.3438 90.9687 50.4883 87.1133 45.7295 87.1133C40.9706 87.1133 37.1152 90.9687 37.1152 95.7276Z" fill="#FFC56A"/>
<path d="M37.8467 94.9975C37.8467 99.2665 41.3077 102.727 45.5767 102.727C49.8457 102.727 53.3066 99.2665 53.3066 94.9975C53.3066 90.7286 49.8457 87.2676 45.5767 87.2676C41.3077 87.2676 37.8467 90.7286 37.8467 94.9975Z" fill="#FFD491"/>
<path d="M45.5762 87.2603C48.7509 87.2603 51.4802 89.1752 52.6699 91.911C51.4802 94.6467 48.7509 96.5616 45.5762 96.5616C42.4015 96.5617 39.6912 94.6467 38.5015 91.911C39.6912 89.1752 42.4015 87.2603 45.5762 87.2603Z" fill="#FFEBCC"/>
<path d="M38.5522 92.948C38.5522 94.0869 39.4747 95.003 40.6071 95.003C41.7396 95.003 42.6621 94.0805 42.6621 92.948C42.6621 91.8156 41.7396 90.8931 40.6071 90.8931C39.4747 90.8931 38.5522 91.8156 38.5522 92.948Z" fill="#EBFCFF"/>
<path d="M47.9647 101.181C47.9647 101.913 48.5564 102.505 49.288 102.505C50.0197 102.505 50.6113 101.913 50.6113 101.181C50.6113 100.45 50.0197 99.8579 49.288 99.8579C48.5564 99.8579 47.9647 100.45 47.9647 101.181Z" fill="#FFEBCC"/>
</g>
<defs>
<linearGradient id="paint0_linear_8074_5710" x1="44.9995" y1="123.51" x2="44.9995" y2="165.006" gradientUnits="userSpaceOnUse">
<stop stop-color="#EDB258"/>
<stop offset="1" stop-color="#E69D2B"/>
</linearGradient>
<linearGradient id="paint1_linear_8074_5710" x1="45.6468" y1="123.513" x2="45.6469" y2="154.612" gradientUnits="userSpaceOnUse">
<stop stop-color="#EDB258"/>
<stop offset="1" stop-color="#E69D2B"/>
</linearGradient>
<linearGradient id="paint2_linear_8074_5710" x1="16.5177" y1="75.0586" x2="16.5177" y2="121.343" gradientUnits="userSpaceOnUse">
<stop stop-color="#EDB258"/>
<stop offset="1" stop-color="#E69D2B"/>
</linearGradient>
<linearGradient id="paint3_linear_8074_5710" x1="73.4845" y1="75.0586" x2="73.4845" y2="121.343" gradientUnits="userSpaceOnUse">
<stop stop-color="#EDB258"/>
<stop offset="1" stop-color="#E69D2B"/>
</linearGradient>
<linearGradient id="paint4_linear_8074_5710" x1="45.004" y1="11.8071" x2="45.004" y2="45.4499" gradientUnits="userSpaceOnUse">
<stop stop-color="#EDB258"/>
<stop offset="1" stop-color="#E69D2B"/>
</linearGradient>
<linearGradient id="paint5_linear_8074_5710" x1="45.0037" y1="115.401" x2="45.0037" y2="129.711" gradientUnits="userSpaceOnUse">
<stop stop-color="#EDB258"/>
<stop offset="1" stop-color="#E69D2B"/>
</linearGradient>
<linearGradient id="paint6_linear_8074_5710" x1="44.944" y1="28.3554" x2="44.944" y2="116.129" gradientUnits="userSpaceOnUse">
<stop stop-color="#2B2934"/>
<stop offset="1" stop-color="#141318"/>
</linearGradient>
<linearGradient id="paint7_linear_8074_5710" x1="45.2758" y1="30.2141" x2="45.2758" y2="107.559" gradientUnits="userSpaceOnUse">
<stop stop-color="#2B2934"/>
<stop offset="1" stop-color="#141318"/>
</linearGradient>
<linearGradient id="paint8_linear_8074_5710" x1="45.6926" y1="47.3344" x2="45.6926" y2="79.5402" gradientUnits="userSpaceOnUse">
<stop stop-color="#2B2934"/>
<stop offset="1" stop-color="#141318"/>
</linearGradient>
<linearGradient id="paint9_linear_8074_5710" x1="45.7303" y1="47.2993" x2="45.7303" y2="79.3643" gradientUnits="userSpaceOnUse">
<stop stop-color="#E19E39"/>
<stop offset="1" stop-color="#AD7112"/>
</linearGradient>
<linearGradient id="paint10_linear_8074_5710" x1="45.7247" y1="45.1001" x2="45.7247" y2="69.0026" gradientUnits="userSpaceOnUse">
<stop stop-color="#EDB258"/>
<stop offset="1" stop-color="#E69D2B"/>
</linearGradient>
<linearGradient id="paint11_linear_8074_5710" x1="45.704" y1="86.5976" x2="45.704" y2="108.477" gradientUnits="userSpaceOnUse">
<stop stop-color="#2B2934"/>
<stop offset="1" stop-color="#141318"/>
</linearGradient>
<linearGradient id="paint12_linear_8074_5710" x1="45.7296" y1="86.5737" x2="45.7296" y2="108.358" gradientUnits="userSpaceOnUse">
<stop stop-color="#E19E39"/>
<stop offset="1" stop-color="#AD7112"/>
</linearGradient>
<linearGradient id="paint13_linear_8074_5710" x1="45.7279" y1="85.0845" x2="45.7279" y2="101.318" gradientUnits="userSpaceOnUse">
<stop stop-color="#EDB258"/>
<stop offset="1" stop-color="#E69D2B"/>
</linearGradient>
<clipPath id="clip0_8074_5710">
<rect width="88.3696" height="165.008" fill="white" transform="matrix(-1 8.74228e-08 8.74228e-08 1 89.1855 0)"/>
</clipPath>
</defs>
</svg>
